<svg xmlns="http://www.w3.org/2000/svg" viewBox="0 0 32 32">
  <defs>
    <linearGradient id="fg" x1="0%" y1="0%" x2="100%" y2="100%">
      <stop offset="0%" style="stop-color:#4da6ff"/>
      <stop offset="100%" style="stop-color:#7c3aed"/>
    </linearGradient>
  </defs>

  <!-- Background -->
  <rect width="32" height="32" rx="6" fill="#0e0e12"/>

  <!-- Simplified M shape with book/memory concept -->
  <path d="M7 24 L7 10 Q7 8 9 8 L11 8 L11 24 Q11 25 10 25 L8 25 Q7 25 7 24Z" fill="url(#fg)"/>
  <path d="M11 11 L16 18 L21 11 L21 13 L16 21 L11 13Z" fill="url(#fg)"/>
  <path d="M21 8 L23 8 Q25 8 25 10 L25 24 Q25 25 24 25 L22 25 Q21 25 21 24 L21 8Z" fill="url(#fg)"/>

  <!-- Top accent dots -->
  <circle cx="10" cy="5" r="1.5" fill="#4da6ff" opacity="0.8"/>
  <circle cx="16" cy="4" r="1" fill="#7c3aed" opacity="0.7"/>
  <circle cx="22" cy="5" r="1.5" fill="#4da6ff" opacity="0.8"/>
</svg>
